# xmcd
#
# Track frame offsets:
#  150
#  13635
#  30273
#  47333
#  71805
#  88313
#  104474
#  128748
#  146832
#  173405
#  188773
#  204596
#  216577
#  231777
#  255816
#  272052
#
# Disc length: 3796 seconds
#
# Revision: 0
# Processed by: cddbd v1.5.1PL0 Copyright (c) Steve Scherf et al.
# Submitted via: AltoMP3_Maker 3.0
#
DISCID=dd0ed210
DTITLE=Varius Artists - 16 Tons Blues
DYEAR=1900
DGENRE=
TTITLE0=Peter Thorup - 16 tons
TTITLE1=Kenn Lending - I don't need you baby
TTITLE2=Troels Jensen - I'm your boogie man
TTITLE3=Povl Dissing - Blues for Bison
TTITLE4=Frimer Band - The way you move
TTITLE5=Shades of blue - Regurgitation blues
TTITLE6=Paul Banks and Steen Vig - Stealin´
TTITLE7=Shuffle Kings - Follow your heart
TTITLE8=Rockwell Kaspersen - Easy living
TTITLE9=Vocapella - Miss Celies´Blues
TTITLE10=Max - Too bad
TTITLE11=H.P.Lange - Hard times on my trail
TTITLE12=Smalltown - Tears of my own
TTITLE13=Organizers - 1974 blues
TTITLE14=Refers Blues Band - Bajer Blues
TTITLE15=Peter Thorup - One Scotch, one Bourbon, o
EXTD=
EXTT0=
EXTT1=
EXTT2=
EXTT3=
EXTT4=
EXTT5=
EXTT6=
EXTT7=
EXTT8=
EXTT9=
EXTT10=
EXTT11=
EXTT12=
EXTT13=
EXTT14=
EXTT15=
PLAYORDER=
